<mxfile host="app.diagrams.net" modified="2022-11-09T03:42:07.480Z" agent="5.0 (Windows NT 10.0; Win64; x64) AppleWebKit/537.36 (KHTML, like Gecko) Chrome/107.0.0.0 Safari/537.36" etag="lfF1znPG65OaEOP1xx5S" version="20.5.3" type="github">
  <diagram id="CPHFEnr3vd0cSPUor515" name="PÃ¡gina-1">
    <mxGraphModel dx="1384" dy="729" grid="1" gridSize="10" guides="1" tooltips="1" connect="1" arrows="1" fold="1" page="1" pageScale="1" pageWidth="827" pageHeight="1169" math="0" shadow="0">
      <root>
        <mxCell id="0" />
        <mxCell id="1" parent="0" />
        <mxCell id="SK879dmGWXdE1maNSfmL-5" style="edgeStyle=orthogonalEdgeStyle;rounded=0;orthogonalLoop=1;jettySize=auto;html=1;entryX=0.5;entryY=0;entryDx=0;entryDy=0;" edge="1" parent="1" source="SK879dmGWXdE1maNSfmL-2" target="SK879dmGWXdE1maNSfmL-6">
          <mxGeometry relative="1" as="geometry">
            <mxPoint x="165" y="120" as="targetPoint" />
          </mxGeometry>
        </mxCell>
        <mxCell id="SK879dmGWXdE1maNSfmL-2" value="" style="ellipse;whiteSpace=wrap;html=1;" vertex="1" parent="1">
          <mxGeometry x="140" y="50" width="50" height="40" as="geometry" />
        </mxCell>
        <mxCell id="SK879dmGWXdE1maNSfmL-3" value="Inicio registrar&amp;nbsp; persona" style="text;html=1;align=center;verticalAlign=middle;resizable=0;points=[];autosize=1;strokeColor=none;fillColor=none;" vertex="1" parent="1">
          <mxGeometry x="115" y="25" width="150" height="30" as="geometry" />
        </mxCell>
        <mxCell id="SK879dmGWXdE1maNSfmL-8" style="edgeStyle=orthogonalEdgeStyle;rounded=0;orthogonalLoop=1;jettySize=auto;html=1;entryX=0.5;entryY=0;entryDx=0;entryDy=0;" edge="1" parent="1" source="SK879dmGWXdE1maNSfmL-6" target="SK879dmGWXdE1maNSfmL-7">
          <mxGeometry relative="1" as="geometry" />
        </mxCell>
        <mxCell id="SK879dmGWXdE1maNSfmL-6" value="validar integridad de datos" style="rounded=0;whiteSpace=wrap;html=1;" vertex="1" parent="1">
          <mxGeometry x="92.5" y="120" width="145" height="60" as="geometry" />
        </mxCell>
        <mxCell id="SK879dmGWXdE1maNSfmL-10" style="edgeStyle=orthogonalEdgeStyle;rounded=0;orthogonalLoop=1;jettySize=auto;html=1;entryX=0;entryY=0.5;entryDx=0;entryDy=0;" edge="1" parent="1" source="SK879dmGWXdE1maNSfmL-7" target="SK879dmGWXdE1maNSfmL-11">
          <mxGeometry relative="1" as="geometry">
            <mxPoint x="270" y="250" as="targetPoint" />
          </mxGeometry>
        </mxCell>
        <mxCell id="SK879dmGWXdE1maNSfmL-14" style="edgeStyle=orthogonalEdgeStyle;rounded=0;orthogonalLoop=1;jettySize=auto;html=1;entryX=0.426;entryY=-0.018;entryDx=0;entryDy=0;entryPerimeter=0;" edge="1" parent="1" source="SK879dmGWXdE1maNSfmL-7" target="SK879dmGWXdE1maNSfmL-35">
          <mxGeometry relative="1" as="geometry">
            <mxPoint x="165" y="329.9999999999999" as="targetPoint" />
          </mxGeometry>
        </mxCell>
        <mxCell id="SK879dmGWXdE1maNSfmL-7" value="" style="rhombus;whiteSpace=wrap;html=1;" vertex="1" parent="1">
          <mxGeometry x="125" y="210" width="80" height="80" as="geometry" />
        </mxCell>
        <mxCell id="SK879dmGWXdE1maNSfmL-11" value="mostrar mensaje de que los datos no son validos" style="rounded=0;whiteSpace=wrap;html=1;" vertex="1" parent="1">
          <mxGeometry x="380" y="220" width="120" height="60" as="geometry" />
        </mxCell>
        <mxCell id="SK879dmGWXdE1maNSfmL-12" value="Datos no son validos" style="text;html=1;align=center;verticalAlign=middle;resizable=0;points=[];autosize=1;strokeColor=none;fillColor=none;" vertex="1" parent="1">
          <mxGeometry x="240" y="220" width="130" height="30" as="geometry" />
        </mxCell>
        <mxCell id="SK879dmGWXdE1maNSfmL-17" style="edgeStyle=orthogonalEdgeStyle;rounded=0;orthogonalLoop=1;jettySize=auto;html=1;entryX=0.5;entryY=0;entryDx=0;entryDy=0;exitX=0.5;exitY=1;exitDx=0;exitDy=0;" edge="1" parent="1" source="SK879dmGWXdE1maNSfmL-27" target="SK879dmGWXdE1maNSfmL-25">
          <mxGeometry relative="1" as="geometry">
            <mxPoint x="172.5" y="509.9999999999999" as="sourcePoint" />
            <mxPoint x="172.5" y="549.9999999999999" as="targetPoint" />
          </mxGeometry>
        </mxCell>
        <mxCell id="SK879dmGWXdE1maNSfmL-59" style="edgeStyle=orthogonalEdgeStyle;rounded=0;orthogonalLoop=1;jettySize=auto;html=1;" edge="1" parent="1" source="SK879dmGWXdE1maNSfmL-16" target="SK879dmGWXdE1maNSfmL-58">
          <mxGeometry relative="1" as="geometry" />
        </mxCell>
        <mxCell id="SK879dmGWXdE1maNSfmL-16" value="mostrar tutorial" style="rounded=0;whiteSpace=wrap;html=1;" vertex="1" parent="1">
          <mxGeometry x="92.5" y="780" width="120" height="60" as="geometry" />
        </mxCell>
        <mxCell id="SK879dmGWXdE1maNSfmL-24" value="mostrar mensaje de que el tutorial no existe" style="rounded=0;whiteSpace=wrap;html=1;" vertex="1" parent="1">
          <mxGeometry x="307.5" y="675" width="120" height="60" as="geometry" />
        </mxCell>
        <mxCell id="SK879dmGWXdE1maNSfmL-30" style="edgeStyle=orthogonalEdgeStyle;rounded=0;orthogonalLoop=1;jettySize=auto;html=1;entryX=0.5;entryY=0;entryDx=0;entryDy=0;" edge="1" parent="1" source="SK879dmGWXdE1maNSfmL-25" target="SK879dmGWXdE1maNSfmL-29">
          <mxGeometry relative="1" as="geometry" />
        </mxCell>
        <mxCell id="SK879dmGWXdE1maNSfmL-25" value="validar Tutorial exista" style="rounded=0;whiteSpace=wrap;html=1;" vertex="1" parent="1">
          <mxGeometry x="92.5" y="560" width="120" height="60" as="geometry" />
        </mxCell>
        <mxCell id="SK879dmGWXdE1maNSfmL-26" value="Datos son validos" style="text;html=1;align=center;verticalAlign=middle;resizable=0;points=[];autosize=1;strokeColor=none;fillColor=none;" vertex="1" parent="1">
          <mxGeometry x="180" y="280" width="120" height="30" as="geometry" />
        </mxCell>
        <mxCell id="SK879dmGWXdE1maNSfmL-27" value="" style="ellipse;whiteSpace=wrap;html=1;" vertex="1" parent="1">
          <mxGeometry x="152.5" y="470" width="40" height="30" as="geometry" />
        </mxCell>
        <mxCell id="SK879dmGWXdE1maNSfmL-28" value="Mostrar tutorial" style="text;html=1;align=center;verticalAlign=middle;resizable=0;points=[];autosize=1;strokeColor=none;fillColor=none;" vertex="1" parent="1">
          <mxGeometry x="192.5" y="460" width="100" height="30" as="geometry" />
        </mxCell>
        <mxCell id="SK879dmGWXdE1maNSfmL-31" style="edgeStyle=orthogonalEdgeStyle;rounded=0;orthogonalLoop=1;jettySize=auto;html=1;entryX=0.004;entryY=0.328;entryDx=0;entryDy=0;entryPerimeter=0;" edge="1" parent="1" source="SK879dmGWXdE1maNSfmL-29" target="SK879dmGWXdE1maNSfmL-24">
          <mxGeometry relative="1" as="geometry" />
        </mxCell>
        <mxCell id="SK879dmGWXdE1maNSfmL-33" style="edgeStyle=orthogonalEdgeStyle;rounded=0;orthogonalLoop=1;jettySize=auto;html=1;entryX=0.5;entryY=0;entryDx=0;entryDy=0;" edge="1" parent="1" source="SK879dmGWXdE1maNSfmL-29" target="SK879dmGWXdE1maNSfmL-16">
          <mxGeometry relative="1" as="geometry" />
        </mxCell>
        <mxCell id="SK879dmGWXdE1maNSfmL-29" value="" style="rhombus;whiteSpace=wrap;html=1;" vertex="1" parent="1">
          <mxGeometry x="112.5" y="655" width="80" height="80" as="geometry" />
        </mxCell>
        <mxCell id="SK879dmGWXdE1maNSfmL-32" value="Tutorial no existe" style="text;html=1;align=center;verticalAlign=middle;resizable=0;points=[];autosize=1;strokeColor=none;fillColor=none;" vertex="1" parent="1">
          <mxGeometry x="192.5" y="655" width="110" height="30" as="geometry" />
        </mxCell>
        <mxCell id="SK879dmGWXdE1maNSfmL-34" value="Tutorial&amp;nbsp; Existe" style="text;html=1;align=center;verticalAlign=middle;resizable=0;points=[];autosize=1;strokeColor=none;fillColor=none;" vertex="1" parent="1">
          <mxGeometry x="157.5" y="735" width="100" height="30" as="geometry" />
        </mxCell>
        <mxCell id="SK879dmGWXdE1maNSfmL-37" style="edgeStyle=orthogonalEdgeStyle;rounded=0;orthogonalLoop=1;jettySize=auto;html=1;" edge="1" parent="1" source="SK879dmGWXdE1maNSfmL-35" target="SK879dmGWXdE1maNSfmL-36">
          <mxGeometry relative="1" as="geometry" />
        </mxCell>
        <mxCell id="SK879dmGWXdE1maNSfmL-35" value="mostrar mensaje de satisfacion" style="whiteSpace=wrap;html=1;" vertex="1" parent="1">
          <mxGeometry x="105" y="330" width="120" height="60" as="geometry" />
        </mxCell>
        <mxCell id="SK879dmGWXdE1maNSfmL-42" style="edgeStyle=orthogonalEdgeStyle;rounded=0;orthogonalLoop=1;jettySize=auto;html=1;entryX=0;entryY=0.5;entryDx=0;entryDy=0;" edge="1" parent="1" source="SK879dmGWXdE1maNSfmL-36" target="SK879dmGWXdE1maNSfmL-40">
          <mxGeometry relative="1" as="geometry" />
        </mxCell>
        <mxCell id="SK879dmGWXdE1maNSfmL-57" style="edgeStyle=orthogonalEdgeStyle;rounded=0;orthogonalLoop=1;jettySize=auto;html=1;" edge="1" parent="1" source="SK879dmGWXdE1maNSfmL-36" target="SK879dmGWXdE1maNSfmL-28">
          <mxGeometry relative="1" as="geometry">
            <Array as="points">
              <mxPoint x="360" y="475" />
            </Array>
          </mxGeometry>
        </mxCell>
        <mxCell id="SK879dmGWXdE1maNSfmL-36" value="Entrar en la APP" style="whiteSpace=wrap;html=1;" vertex="1" parent="1">
          <mxGeometry x="320" y="330" width="120" height="60" as="geometry" />
        </mxCell>
        <mxCell id="SK879dmGWXdE1maNSfmL-40" value="" style="ellipse;whiteSpace=wrap;html=1;" vertex="1" parent="1">
          <mxGeometry x="560" y="320" width="70" height="70" as="geometry" />
        </mxCell>
        <mxCell id="SK879dmGWXdE1maNSfmL-41" value="fin de registrar persona" style="text;html=1;align=center;verticalAlign=middle;resizable=0;points=[];autosize=1;strokeColor=none;fillColor=none;" vertex="1" parent="1">
          <mxGeometry x="505" y="395" width="150" height="30" as="geometry" />
        </mxCell>
        <mxCell id="SK879dmGWXdE1maNSfmL-46" style="edgeStyle=orthogonalEdgeStyle;rounded=0;orthogonalLoop=1;jettySize=auto;html=1;exitX=0.5;exitY=1;exitDx=0;exitDy=0;" edge="1" parent="1" source="SK879dmGWXdE1maNSfmL-43">
          <mxGeometry relative="1" as="geometry">
            <mxPoint x="580" y="575" as="targetPoint" />
          </mxGeometry>
        </mxCell>
        <mxCell id="SK879dmGWXdE1maNSfmL-43" value="" style="ellipse;whiteSpace=wrap;html=1;" vertex="1" parent="1">
          <mxGeometry x="550" y="490" width="60" height="50" as="geometry" />
        </mxCell>
        <mxCell id="SK879dmGWXdE1maNSfmL-44" value="Registrar&amp;nbsp; Historial" style="text;html=1;align=center;verticalAlign=middle;resizable=0;points=[];autosize=1;strokeColor=none;fillColor=none;" vertex="1" parent="1">
          <mxGeometry x="520" y="465" width="120" height="30" as="geometry" />
        </mxCell>
        <mxCell id="SK879dmGWXdE1maNSfmL-55" style="edgeStyle=orthogonalEdgeStyle;rounded=0;orthogonalLoop=1;jettySize=auto;html=1;" edge="1" parent="1" source="SK879dmGWXdE1maNSfmL-47" target="SK879dmGWXdE1maNSfmL-52">
          <mxGeometry relative="1" as="geometry" />
        </mxCell>
        <mxCell id="SK879dmGWXdE1maNSfmL-47" value="Validar si&amp;nbsp; existe una persona" style="whiteSpace=wrap;html=1;" vertex="1" parent="1">
          <mxGeometry x="540" y="580" width="120" height="60" as="geometry" />
        </mxCell>
        <mxCell id="SK879dmGWXdE1maNSfmL-56" style="edgeStyle=orthogonalEdgeStyle;rounded=0;orthogonalLoop=1;jettySize=auto;html=1;entryX=1.055;entryY=0.333;entryDx=0;entryDy=0;entryPerimeter=0;" edge="1" parent="1" source="SK879dmGWXdE1maNSfmL-48" target="SK879dmGWXdE1maNSfmL-28">
          <mxGeometry relative="1" as="geometry">
            <Array as="points">
              <mxPoint x="470" y="855" />
              <mxPoint x="470" y="470" />
            </Array>
          </mxGeometry>
        </mxCell>
        <mxCell id="SK879dmGWXdE1maNSfmL-48" value="validar si esta&amp;nbsp;" style="rounded=0;whiteSpace=wrap;html=1;" vertex="1" parent="1">
          <mxGeometry x="540" y="825" width="120" height="60" as="geometry" />
        </mxCell>
        <mxCell id="SK879dmGWXdE1maNSfmL-49" value="mostrar mensaje de que la persona no existe" style="rounded=0;whiteSpace=wrap;html=1;" vertex="1" parent="1">
          <mxGeometry x="755" y="720" width="120" height="60" as="geometry" />
        </mxCell>
        <mxCell id="SK879dmGWXdE1maNSfmL-50" style="edgeStyle=orthogonalEdgeStyle;rounded=0;orthogonalLoop=1;jettySize=auto;html=1;entryX=0.004;entryY=0.328;entryDx=0;entryDy=0;entryPerimeter=0;" edge="1" parent="1" source="SK879dmGWXdE1maNSfmL-52" target="SK879dmGWXdE1maNSfmL-49">
          <mxGeometry relative="1" as="geometry" />
        </mxCell>
        <mxCell id="SK879dmGWXdE1maNSfmL-51" style="edgeStyle=orthogonalEdgeStyle;rounded=0;orthogonalLoop=1;jettySize=auto;html=1;entryX=0.5;entryY=0;entryDx=0;entryDy=0;" edge="1" parent="1" source="SK879dmGWXdE1maNSfmL-52" target="SK879dmGWXdE1maNSfmL-48">
          <mxGeometry relative="1" as="geometry" />
        </mxCell>
        <mxCell id="SK879dmGWXdE1maNSfmL-52" value="" style="rhombus;whiteSpace=wrap;html=1;" vertex="1" parent="1">
          <mxGeometry x="560" y="700" width="80" height="80" as="geometry" />
        </mxCell>
        <mxCell id="SK879dmGWXdE1maNSfmL-53" value="Persona no existe" style="text;html=1;align=center;verticalAlign=middle;resizable=0;points=[];autosize=1;strokeColor=none;fillColor=none;" vertex="1" parent="1">
          <mxGeometry x="635" y="700" width="120" height="30" as="geometry" />
        </mxCell>
        <mxCell id="SK879dmGWXdE1maNSfmL-54" value="Persona&amp;nbsp; Existe" style="text;html=1;align=center;verticalAlign=middle;resizable=0;points=[];autosize=1;strokeColor=none;fillColor=none;" vertex="1" parent="1">
          <mxGeometry x="600" y="780" width="110" height="30" as="geometry" />
        </mxCell>
        <mxCell id="SK879dmGWXdE1maNSfmL-61" style="edgeStyle=orthogonalEdgeStyle;rounded=0;orthogonalLoop=1;jettySize=auto;html=1;" edge="1" parent="1" source="SK879dmGWXdE1maNSfmL-58" target="SK879dmGWXdE1maNSfmL-60">
          <mxGeometry relative="1" as="geometry" />
        </mxCell>
        <mxCell id="SK879dmGWXdE1maNSfmL-58" value="Registrar historial" style="rounded=0;whiteSpace=wrap;html=1;" vertex="1" parent="1">
          <mxGeometry x="93" y="910" width="120" height="60" as="geometry" />
        </mxCell>
        <mxCell id="SK879dmGWXdE1maNSfmL-60" value="" style="ellipse;whiteSpace=wrap;html=1;rounded=0;" vertex="1" parent="1">
          <mxGeometry x="100" y="1030" width="120" height="60" as="geometry" />
        </mxCell>
        <mxCell id="SK879dmGWXdE1maNSfmL-62" value="Fin de flujo" style="text;html=1;align=center;verticalAlign=middle;resizable=0;points=[];autosize=1;strokeColor=none;fillColor=none;" vertex="1" parent="1">
          <mxGeometry x="125" y="1100" width="80" height="30" as="geometry" />
        </mxCell>
      </root>
    </mxGraphModel>
  </diagram>
</mxfile>
